<svg width="91" height="27" viewBox="0 0 91 27" fill="none" xmlns="http://www.w3.org/2000/svg">
<path d="M82.9 13.1H79.7C77.6 13.1 76.5 14.6 76.5 17.2V26.5H70.4V13.1H67.8C65.7 13.1 64.6 14.6 64.6 17.2V26.5H58.5V8.1H64.6V10.9C65.6 8.7 67 8.1 69 8.1H76.4V10.9C77.4 8.7 78.8 8.1 80.8 8.1H82.8V13.1H82.9ZM57.3 18.7H44.7C45 20.8 46.3 21.9 48.5 21.9C50.1 21.9 51.3 21.2 51.6 20.1L57 21.6C55.7 24.8 52.4 26.7 48.5 26.7C41.9 26.7 38.9 21.6 38.9 17.2C38.9 12.9 41.5 7.8 48.1 7.8C55.1 7.8 57.4 13 57.4 16.9C57.4 17.8 57.4 18.3 57.3 18.7ZM51.4 15.2C51.3 13.6 50.1 12.2 48.1 12.2C46.2 12.2 45 13 44.7 15.2H51.4ZM28.3 26.5H33.6L40.3 8.2H34.2L31 18.9L27.6 8.1H21.5L28.3 26.5ZM3.4 26.5H9.4V13.1H15.1V26.5H21.1V8.1H9.5V7C9.5 5.8 10.4 5 11.8 5H15.3V0H10.9C6.4 0 3.4 2.7 3.4 6.6V8.1H0V13.1H3.4V26.5Z" fill="#7A7D85"/>
<path d="M90.4 23.3C90.4 25.4 88.8 27 86.6 27C84.4 27 82.8 25.4 82.8 23.3C82.8 21.2 84.4 19.6 86.6 19.6C88.8 19.5 90.4 21.1 90.4 23.3ZM89.7 23.3C89.7 21.5 88.4 20.2 86.6 20.2C84.8 20.2 83.5 21.5 83.5 23.3C83.5 25.1 84.8 26.4 86.6 26.4C88.4 26.4 89.7 25 89.7 23.3ZM88 24.1L88.1 25H87.4L87.3 24.1C87.3 23.8 87.1 23.6 86.8 23.6H86V25H85.3V21.5H86.7C87.4 21.5 87.9 21.9 87.9 22.6C87.9 23 87.7 23.2 87.4 23.4C87.8 23.5 87.9 23.7 88 24.1ZM86.1 23.1H86.8C87.2 23.1 87.3 22.8 87.3 22.6C87.3 22.3 87.1 22.1 86.8 22.1H86.1V23.1Z" fill="#7A7D85"/>
</svg>
